<svg width="69" height="69" viewBox="0 0 69 69" fill="none" xmlns="http://www.w3.org/2000/svg">
<rect width="69" height="69" fill="#2E1A47"/>
<path d="M48.4155 21.3975C48.4155 23.8144 46.6084 25.8108 44.2721 26.1188H36.9543C34.3149 26.1188 32.1748 23.9862 32.1748 21.356V14.7628C32.1748 12.2451 34.1365 10.1836 36.6154 10.0118C36.6154 10.0118 36.6154 10.0118 36.6214 10.0118C36.7284 10.0059 36.8413 10 36.9543 10C37.0435 10 37.1267 10 37.2158 10.0059C37.2337 10.0059 37.2515 10.0059 37.2693 10.0118C37.3704 10.0178 37.4774 10.0296 37.5785 10.0415C37.5844 10.0415 37.5844 10.0415 37.5844 10.0415C43.1902 10.6694 47.6487 15.0708 48.3501 20.6333C48.3798 20.817 48.3977 21.0065 48.4096 21.1961C48.4096 21.2672 48.4155 21.3324 48.4155 21.3975Z" fill="#B1B2DD"/>
<path d="M27.4375 26.178C29.8629 26.178 31.8662 27.9788 32.1753 30.3069V37.5992C32.1753 40.2294 30.0353 42.362 27.3958 42.362H20.7795C18.253 42.362 16.1843 40.4071 16.0119 37.9368C16.0119 37.9368 16.0119 37.9368 16.0119 37.9309C16.0059 37.8243 16 37.7117 16 37.5992C16 37.5103 16 37.4274 16.0059 37.3385C16.0059 37.3208 16.0059 37.303 16.0119 37.2852C16.0178 37.1845 16.0297 37.0779 16.0416 36.9772C16.0416 36.9713 16.0416 36.9713 16.0416 36.9713C16.6717 31.3851 21.0886 26.9422 26.6706 26.2431C26.8549 26.2135 27.0451 26.1958 27.2353 26.1839C27.3067 26.1839 27.3721 26.178 27.4375 26.178Z" fill="#FF6A4D"/>
<path d="M36.984 58.6054C34.5586 58.6054 32.5552 56.8045 32.2461 54.4765V47.1842C32.2461 44.554 34.3862 42.4214 37.0256 42.4214H43.6419C46.1684 42.4214 48.2371 44.3763 48.4095 46.8465C48.4095 46.8465 48.4095 46.8465 48.4095 46.8524C48.4214 46.965 48.4214 47.0775 48.4214 47.1901C48.4214 47.279 48.4214 47.3619 48.4155 47.4507C48.4155 47.4685 48.4155 47.4863 48.4095 47.5041C48.4036 47.6048 48.3917 47.7114 48.3798 47.8121C48.3798 47.818 48.3798 47.818 48.3798 47.818C47.7497 53.4042 43.3328 57.8471 37.7508 58.5461C37.5665 58.5758 37.3763 58.5935 37.1861 58.6054C37.1207 58.6054 37.0553 58.6054 36.984 58.6054Z" fill="#EFAC00"/>
</svg>
